

                Rychly Prachy (PRAHA - 12.09.2011) - Iveta

  Without advertising kinotip!
  Without errors on video!
  
Screen:          http://image.bayimg.com/pakdjaadb.jpg

Oficial website: http://rychlyprachy.cz

Direct Link:     http://rychlyprachy.cz/video56.cz.html



General
Complete name                    : Rychly Prachy (PRAHA - 12.09.2011) - Iveta.wmv
Format                           : Windows Media
File size                        : 386 MiB
Duration                         : 21mn 21s
Overall bit rate mode            : Constant
Overall bit rate                 : 2 529 Kbps
Maximum Overall bit rate         : 2 540 Kbps
Encoded date                     : UTC 2011-09-13 11:53:54.130
SfOriginalFPS                    : 300000

Video
ID                               : 2
Format                           : VC-1
Format profile                   : MP@ML
Codec ID                         : WMV3
Codec ID/Info                    : Windows Media Video 9
Codec ID/Hint                    : WMV3
Description of the codec         : Windows Media Video 9 - Professional
Duration                         : 21mn 21s
Bit rate mode                    : Constant
Bit rate                         : 2 421 Kbps
Width                            : 640 pixels
Height                           : 480 pixels
Display aspect ratio             : 4:3
Frame rate                       : 30.000 fps
Bit depth                        : 8 bits
Scan type                        : Progressive
Compression mode                 : Lossy
Bits/(Pixel*Frame)               : 0.263
Stream size                      : 370 MiB (96%)
Language                         : Czech

Audio
ID                               : 1
Format                           : WMA
Format version                   : Version 2
Codec ID                         : 161
Codec ID/Info                    : Windows Media Audio
Description of the codec         : Windows Media Audio 9.2 -  96 kbps, 44 kHz, stereo (A/V) 1-pass CBR
Duration                         : 21mn 21s
Bit rate mode                    : Constant
Bit rate                         : 96.0 Kbps
Channel(s)                       : 2 channels
Sampling rate                    : 44.1 KHz
Bit depth                        : 16 bits
Stream size                      : 14.7 MiB (4%)
Language                         : Czech





